<svg xmlns="http://www.w3.org/2000/svg" width="425" height="225" viewBox="0 0 425 225"><defs><clipPath id="a"><path d="M0 25h400v200H0z"/></clipPath></defs><path fill="none" stroke="#000" d="M8.929 225V25M26.786 225V25M44.643 225V25M62.5 225V25M80.357 225V25M98.214 225V25M116.071 225V25M133.929 225V25M151.786 225V25M169.643 225V25M187.5 225V25M205.357 225V25M223.214 225V25M241.071 225V25M258.929 225V25M276.786 225V25M294.643 225V25M312.5 225V25M330.357 225V25M348.214 225V25M366.071 225V25M383.929 225V25M0 225h400M0 186.538h400M0 148.077h400M0 109.615h400M0 71.154h400M0 32.692h400" stroke-width="2" opacity=".1"/><path fill="none" stroke="#000" d="M7.05 180.939c-.35 2.1-4.2 5.25-5.25 5.6 1.05.35 4.9 3.5 5.25 5.6" stroke-width="2" stroke-linejoin="round" stroke-linecap="round"/><path fill="none" stroke="#000" d="M26.786 186.538H1.05" stroke-width="2"/><path fill="none" stroke="#000" d="M394.45 192.138c.35-2.1 4.2-5.25 5.25-5.6-1.05-.35-4.9-3.5-5.25-5.6" stroke-width="2" stroke-linejoin="round" stroke-linecap="round"/><path fill="none" stroke="#000" d="M26.786 186.538H398.95" stroke-width="2"/><path fill="none" stroke="#000" d="M21.936 218.7c2.1.35 5.25 4.2 5.6 5.25.35-1.05 3.5-4.9 5.6-5.25" stroke-width="2" stroke-linejoin="round" stroke-linecap="round"/><path fill="none" stroke="#000" d="M26.786 186.538v37.412" stroke-width="2"/><path fill="none" stroke="#000" d="M33.136 31.3c-2.1-.35-5.25-4.2-5.6-5.25-.35 1.05-3.5 4.9-5.6 5.25" stroke-width="2" stroke-linejoin="round" stroke-linecap="round"/><path fill="none" stroke="#000" d="M26.786 186.538V26.05" stroke-width="2"/><path fill="none" stroke="#000" d="M62.5 191.538v-10M98.214 191.538v-10M133.929 191.538v-10M169.643 191.538v-10M205.357 191.538v-10M241.071 191.538v-10M276.786 191.538v-10M312.5 191.538v-10M348.214 191.538v-10M383.929 191.538v-10M21.786 148.077h10M21.786 109.615h10M21.786 71.154h10M21.786 32.692h10"/><path fill="none" stroke="#11accd" d="M27 133.409l.5-13.362.5-5.888.5-3.827.5-2.841.5-2.259.5-1.876.5-1.605.5-1.402.5-1.244.5-1.118.5-1.017.5-.93.5-.86.5-.797.5-.743.5-.697.5-.656.5-.619.5-.586.5-.557.5-.53.5-.507.5-.484.5-.464.5-.445.5-.428.5-.412.5-.398.5-.383.5-.371.5-.36.5-.347.5-.337.5-.327.5-.318.5-.308.5-.301.5-.293.5-.285.5-.278.5-.27.5-.266.5-.258.5-.253.5-.247.5-.241.5-.237.5-.231.5-.227.5-.222.5-.218.5-.214.5-.21.5-.206.5-.202.5-.198.5-.195.5-.192.5-.188.5-.185.5-.182.5-.18.5-.176.5-.173.5-.171.5-.169.5-.166.5-.163.5-.16.5-.16.5-.156.5-.154.5-.153.5-.15.5-.148.5-.146.5-.144.5-.142.5-.141.5-.139.5-.137.5-.136.5-.133.5-.133.5-.13.5-.13.5-.127.5-.126.5-.125.5-.123.5-.123.5-.12.5-.12.5-.118.5-.117.5-.116.5-.114.5-.113.5-.112.5-.111.5-.11.5-.11.5-.107.5-.107.5-.106.5-.105.5-.103L81 72l.5-.102.5-.1.5-.101.5-.1.5-.097.5-.098.5-.096.5-.096.5-.095.5-.094.5-.093.5-.093.5-.092.5-.09.5-.091.5-.09.5-.088.5-.089.5-.087.5-.087.5-.086.5-.085.5-.085.5-.084.5-.084.5-.082.5-.083.5-.081.5-.081.5-.08.5-.08.5-.08.5-.079.5-.078.5-.078.5-.077.5-.076.5-.076.5-.076.5-.075.5-.074.5-.074.5-.074.5-.073.5-.073.5-.072.5-.071.5-.072.5-.07.5-.07.5-.07.5-.07.5-.069.5-.068.5-.068.5-.068.5-.067.5-.067.5-.067.5-.066.5-.065.5-.066.5-.065.5-.064.5-.064.5-.064.5-.064.5-.063.5-.062.5-.063.5-.062.5-.061.5-.062.5-.06.5-.061.5-.06.5-.06.5-.06.5-.06.5-.059.5-.059.5-.058.5-.058.5-.058.5-.058.5-.057.5-.057.5-.056.5-.057.5-.056.5-.056.5-.055.5-.055.5-.055.5-.055.5-.054.5-.055.5-.053.5-.054.5-.053.5-.054.5-.052.5-.053.5-.052.5-.053.5-.051.5-.052.5-.052.5-.05.5-.052.5-.05.5-.05.5-.05.5-.05.5-.05.5-.05.5-.05.5-.049.5-.049.5-.048.5-.049.5-.048.5-.048.5-.048.5-.048.5-.047.5-.047.5-.047.5-.047.5-.047.5-.046.5-.047.5-.046.5-.045.5-.046.5-.046.5-.045.5-.045.5-.045.5-.045.5-.044.5-.045.5-.044.5-.044.5-.044.5-.044.5-.043.5-.043.5-.044.5-.043.5-.043.5-.042.5-.043.5-.042.5-.042.5-.042.5-.042.5-.042.5-.042.5-.041.5-.041.5-.041.5-.041.5-.041.5-.04.5-.041.5-.04.5-.041.5-.04.5-.04.5-.04.5-.04.5-.039.5-.04.5-.038.5-.04.5-.038.5-.04.5-.038.5-.039.5-.038.5-.038.5-.038.5-.038.5-.038.5-.038.5-.038.5-.037.5-.038.5-.037.5-.037.5-.037.5-.037.5-.037.5-.036.5-.037.5-.036.5-.036.5-.037.5-.036.5-.035.5-.036.5-.036.5-.036.5-.035.5-.035.5-.036.5-.035.5-.035.5-.035.5-.035.5-.034.5-.035.5-.034.5-.035.5-.034.5-.034.5-.034.5-.034.5-.034.5-.034.5-.033.5-.034.5-.033.5-.033.5-.034.5-.033.5-.033.5-.033.5-.033.5-.032.5-.033.5-.033.5-.032.5-.032.5-.033.5-.032.5-.032.5-.032.5-.032.5-.032.5-.031.5-.032.5-.032.5-.031.5-.031.5-.032.5-.03.5-.032.5-.03.5-.032.5-.03.5-.031.5-.031.5-.03.5-.031.5-.03.5-.03.5-.031.5-.03.5-.03.5-.03.5-.03.5-.03.5-.03.5-.03.5-.03.5-.029.5-.03.5-.029.5-.029.5-.029.5-.03.5-.028.5-.03.5-.028.5-.029.5-.029.5-.028.5-.029.5-.028.5-.029.5-.028.5-.029.5-.028.5-.028.5-.028.5-.028.5-.028.5-.028.5-.028.5-.028.5-.027.5-.028.5-.027.5-.028.5-.027.5-.028.5-.027.5-.027.5-.027.5-.027.5-.027.5-.027.5-.027.5-.027.5-.027.5-.026.5-.027.5-.026.5-.027.5-.026.5-.027.5-.026.5-.026.5-.027.5-.026.5-.026.5-.026.5-.026.5-.026.5-.025.5-.026.5-.026.5-.025.5-.026.5-.026.5-.025.5-.025.5-.026.5-.025.5-.025.5-.025.5-.026.5-.025.5-.024.5-.025.5-.025.5-.025.5-.025.5-.025.5-.024.5-.025.5-.024.5-.025.5-.024.5-.025.5-.024.5-.024.5-.025.5-.024.5-.024.5-.024.5-.024.5-.024.5-.024.5-.024.5-.024.5-.023.5-.024.5-.024.5-.023.5-.024.5-.024.5-.023.5-.023.5-.024.5-.023.5-.023.5-.024.5-.023.5-.023.5-.023.5-.023.5-.023.5-.023.5-.023.5-.023.5-.023.5-.022.5-.023.5-.023.5-.022.5-.023.5-.022.5-.023.5-.022.5-.023.5-.022.5-.022.5-.022.5-.023.5-.022.5-.022.5-.022.5-.022.5-.022.5-.022.5-.022.5-.022.5-.021.5-.022.5-.022.5-.021.5-.022.5-.022.5-.021.5-.022.5-.021.5-.022.5-.021.5-.022.5-.02.5-.022.5-.021.5-.021.5-.022.5-.02.5-.022.5-.02.5-.022.5-.02.5-.022.5-.02.5-.021.5-.021.5-.02.5-.022.5-.02.5-.02.5-.021.5-.02.5-.022.5-.02.5-.02.5-.02.5-.021.5-.02.5-.02.5-.021.5-.02.5-.02.5-.02.5-.02.5-.02.5-.02.5-.02.5-.02.5-.02.5-.02.5-.02.5-.02.5-.02.5-.02.5-.02.5-.02.5-.019.5-.02.5-.019.5-.02.5-.019.5-.02.5-.019.5-.02.5-.019.5-.02.5-.018.5-.02.5-.019.5-.02.5-.018.5-.02.5-.018.5-.02.5-.019.5-.019.5-.019.5-.018.5-.02.5-.018.5-.02.5-.018.5-.019.5-.018.5-.02.5-.018.5-.019.5-.018.5-.019.5-.018.5-.019.5-.018.5-.019.5-.018.5-.019.5-.018.5-.018.5-.019.5-.018.5-.018.5-.018.5-.019.5-.018.5-.018.5-.018.5-.018.5-.018.5-.018.5-.018.5-.018.5-.018.5-.018.5-.018.5-.018.5-.017.5-.018.5-.018.5-.018.5-.017.5-.018.5-.018.5-.017.5-.018.5-.018.5-.017.5-.018.5-.017.5-.017.5-.018.5-.017.5-.018.5-.017.5-.017.5-.018.5-.017.5-.017.5-.017.5-.017.5-.018.5-.017.5-.017.5-.017.5-.017.5-.017.5-.017.5-.017.5-.017.5-.017.5-.017.5-.017.5-.016.5-.017.5-.017.5-.017.5-.017.5-.016.5-.017.5-.017.5-.016.5-.017.5-.017.5-.016.5-.017.5-.016.5-.017.5-.016.5-.017.5-.016.5-.016.5-.017.5-.016.5-.016.5-.017.5-.016.5-.016.5-.017.5-.016.5-.016.5-.016.5-.016.5-.016.5-.016.5-.016.5-.016.5-.016.5-.016.5-.016.5-.016.5-.016.5-.016.5-.016.5-.016.5-.016.5-.015.5-.016.5-.016.5-.016.5-.016.5-.015.5-.016.5-.016.5-.015.5-.016.5-.015.5-.016.5-.016.5-.015.5-.016.5-.015.5-.015.5-.016.5-.015.5-.016.5-.015.5-.016.5-.015.5-.015.5-.015.5-.016.5-.015.5-.015.5-.015.5-.016.5-.015.5-.015.5-.015.5-.015.5-.015.5-.015.5-.015.5-.015.5-.015.5-.015.5-.015.5-.015.5-.015.5-.015.5-.015" stroke-width="3" clip-path="url(#a)"/></svg>
