<svg version="1.1" xmlns="http://www.w3.org/2000/svg" viewBox="0 0 301 869.8333892822266" width="301" height="869.8333892822266" filter="invert(93%) hue-rotate(180deg)">
  <!-- svg-source:excalidraw -->
  
  <defs>
    <style class="style-fonts">
      @font-face {
        font-family: "Virgil";
        src: url("https://excalidraw.com/Virgil.woff2");
      }
      @font-face {
        font-family: "Cascadia";
        src: url("https://excalidraw.com/Cascadia.woff2");
      }
    </style>
    
  </defs>
  <rect x="0" y="0" width="301" height="869.8333892822266" fill="#f5faff"/><g stroke-linecap="round"><g transform="translate(66.66137762730304 175.29066356599884) rotate(0 87.659597182001 45.15947208060573)"><path d="M0.85 0.74 C-9.2 23.07, -16.2 50.63, -26.14 90.36 M-0.65 -0.53 C-9.49 32.05, -18.95 62.52, -26.46 92.21 M-27.37 90.03 C35.31 91.65, 102.11 93.26, 174.12 90.12 M-26.88 91.33 C45.98 90.63, 119.47 90.18, 174.98 90.99 M175.67 90.43 C183.09 63.82, 192.07 34.29, 202.13 -0.94 M174.47 91.3 C182.46 71.14, 188.58 49.55, 203.14 -1.13 M201.03 -0.08 C154.83 -1.68, 107.22 -1.33, 1.41 -0.87 M202.88 -1.92 C138.23 -0.85, 72.8 1.01, -0.23 0.72" stroke="#1e1e1e" stroke-width="1" fill="none"/></g></g><mask/><g stroke-linecap="round" transform="translate(95.49981689453125 5) rotate(0 59 37.5)"><path d="M18.75 0 M18.75 0 C48.58 -1.54, 72.99 1.7, 99.25 0 M18.75 0 C36.11 -1.28, 53.07 -1.23, 99.25 0 M99.25 0 C109.75 0.4, 118.56 7.33, 118 18.75 M99.25 0 C111.15 -0.36, 116.6 4.53, 118 18.75 M118 18.75 C117.39 28.13, 116.34 36.83, 118 56.25 M118 18.75 C117.87 27.88, 117.14 38.61, 118 56.25 M118 56.25 C119.84 68.29, 113.31 73.87, 99.25 75 M118 56.25 C118.66 67.52, 112.18 74.32, 99.25 75 M99.25 75 C77.18 74.53, 54.56 75.07, 18.75 75 M99.25 75 C72.62 76.23, 47.17 76.06, 18.75 75 M18.75 75 C4.54 75.29, -1.86 69.85, 0 56.25 M18.75 75 C6.55 73.09, 1.41 69.39, 0 56.25 M0 56.25 C0.91 41.35, 1.59 27.98, 0 18.75 M0 56.25 C-1.01 44.93, 0.69 33.02, 0 18.75 M0 18.75 C1.8 4.37, 7.73 0.14, 18.75 0 M0 18.75 C1.96 5.07, 8.14 1.7, 18.75 0" stroke="#1e1e1e" stroke-width="1" fill="none"/></g><g transform="translate(133.38165283203125 31) rotate(0 21.1181640625 11.5)"><text x="21.1181640625" y="0" font-family="Helvetica, Segoe UI Emoji" font-size="20px" fill="#1e1e1e" text-anchor="middle" style="white-space: pre;" direction="ltr" dominant-baseline="text-before-edge">Start</text></g><g stroke-linecap="round"><g transform="translate(154.08319091796875 81.66668701171875) rotate(0 -3.552713678800501e-15 41.24999237060548)"><path d="M-0.96 -0.12 C-1.05 13.55, -1.12 68.92, -1.16 82.49 M0.74 -1.22 C1.05 12.6, 0.89 70.15, 0.94 84.02" stroke="#1e1e1e" stroke-width="1" fill="none"/></g><g transform="translate(154.08319091796875 81.66668701171875) rotate(0 -3.552713678800501e-15 41.24999237060548)"><path d="M-9.52 53.9 C-6.68 60.94, -6.08 71.8, -0.27 85.8 M-8.96 56.81 C-5.75 66.24, -1.33 77.58, 0.65 83.54" stroke="#1e1e1e" stroke-width="1" fill="none"/></g><g transform="translate(154.08319091796875 81.66668701171875) rotate(0 -3.552713678800501e-15 41.24999237060548)"><path d="M11 53.89 C8.74 60.77, 4.24 71.63, -0.27 85.8 M11.56 56.8 C7.22 66.15, 4.08 77.5, 0.65 83.54" stroke="#1e1e1e" stroke-width="1" fill="none"/></g></g><mask/><g transform="translate(64.08331298828125 198.3333282470703) rotate(0 90.6005859375 23)"><text x="0" y="0" font-family="Helvetica, Segoe UI Emoji" font-size="20px" fill="#1e1e1e" text-anchor="start" style="white-space: pre;" direction="ltr" dominant-baseline="text-before-edge">Input MilePerGallon,</text><text x="0" y="23" font-family="Helvetica, Segoe UI Emoji" font-size="20px" fill="#1e1e1e" text-anchor="start" style="white-space: pre;" direction="ltr" dominant-baseline="text-before-edge">distance, cost_per</text></g><g stroke-linecap="round"><g transform="translate(147.76129981774892 266.3333282470703) rotate(0 0.0034341812920981596 57.91650766864028)"><path d="M-0.95 -0.49 C-1.19 18.64, -1.36 95.94, -1.18 115.18 M0.76 -1.79 C0.84 17.46, 1.13 96.78, 0.91 116.38" stroke="#1e1e1e" stroke-width="1" fill="none"/></g><g transform="translate(147.76129981774892 266.3333282470703) rotate(0 0.0034341812920981596 57.91650766864028)"><path d="M-10.09 86.19 C-6.98 97.56, -4.09 107.38, 0.31 115.56 M-10.27 87.27 C-6.82 94.4, -5.54 101.49, 1.36 116.96" stroke="#1e1e1e" stroke-width="1" fill="none"/></g><g transform="translate(147.76129981774892 266.3333282470703) rotate(0 0.0034341812920981596 57.91650766864028)"><path d="M10.43 86.24 C6.92 97.44, 3.18 107.24, 0.31 115.56 M10.25 87.32 C8.97 94.43, 5.53 101.5, 1.36 116.96" stroke="#1e1e1e" stroke-width="1" fill="none"/></g></g><mask/><g stroke-linecap="round" transform="translate(5 379.66664123535156) rotate(0 145.5 62.5)"><path d="M-0.87 1.39 C88.87 1.86, 181.23 0.85, 291.64 0.78 M0.17 -0.53 C109.25 -0.64, 218.62 -1.6, 290.33 -0.73 M289.88 1.96 C291.48 43.46, 290.36 86.55, 291.47 125.44 M290.64 -0.79 C291.16 46.62, 289.83 92.58, 290.26 125.45 M291.83 124.7 C183.19 124.34, 77.79 123.36, -1.48 124.85 M290.5 124.54 C177.78 124.16, 66.56 122.89, -0.22 124.99 M-0.59 124.45 C-0.55 77.12, 1.27 26.26, -1.17 -0.68 M-0.57 124.58 C0.24 89.16, 1.05 55.29, 0.94 0.76" stroke="#1e1e1e" stroke-width="1" fill="none"/></g><g transform="translate(10 407.66664123535156) rotate(0 136.4794921875 34.5)"><text x="0" y="0" font-family="Helvetica, Segoe UI Emoji" font-size="20px" fill="#1e1e1e" text-anchor="start" style="white-space: pre;" direction="ltr" dominant-baseline="text-before-edge">gallon = </text><text x="0" y="23" font-family="Helvetica, Segoe UI Emoji" font-size="20px" fill="#1e1e1e" text-anchor="start" style="white-space: pre;" direction="ltr" dominant-baseline="text-before-edge">distance/MilePerGallon</text><text x="0" y="46" font-family="Helvetica, Segoe UI Emoji" font-size="20px" fill="#1e1e1e" text-anchor="start" style="white-space: pre;" direction="ltr" dominant-baseline="text-before-edge">cost = gallon * cost_par_gallon</text></g><g stroke-linecap="round"><g transform="translate(66.66137762730304 606.12397655428) rotate(0 87.659597182001 45.159472080605724)"><path d="M-0.58 -1.86 C-7.09 24.59, -12.04 47.39, -26.41 89.84 M-0.19 0.04 C-7.91 24.5, -13.63 47.74, -26.73 91.78 M-27.27 91.68 C43.19 93.61, 115.08 93.39, 174.43 92.88 M-27.02 91.05 C19.41 88.93, 65.19 89.05, 174.43 91.06 M175.17 92.23 C182.31 60.23, 192.82 26.6, 203.15 -2.02 M174.32 90.39 C184.24 61.54, 193.96 29.7, 202.74 -1.1 M204.29 -2.15 C148.94 -1.7, 97.77 0.92, 1.75 -1.67 M202.29 -1.76 C126.79 -0.25, 51.43 0.49, -0.46 -0.16" stroke="#1e1e1e" stroke-width="1" fill="none"/></g></g><mask/><g transform="translate(72.41656494140625 644.9999542236328) rotate(0 83.3837890625 11.5)"><text x="0" y="0" font-family="Helvetica, Segoe UI Emoji" font-size="20px" fill="#1e1e1e" text-anchor="start" style="white-space: pre;" direction="ltr" dominant-baseline="text-before-edge">Output gallon, cost</text></g><g stroke-linecap="round"><g transform="translate(154.91656494140625 512.5000152587891) rotate(0 -3.552713678800501e-15 41.24999237060547)"><path d="M-0.06 -0.88 C-0.16 12.6, -1.28 67.89, -1.1 81.95 M-1.56 1.27 C-1.25 15.42, 0.65 69.8, 1.03 83.2" stroke="#1e1e1e" stroke-width="1" fill="none"/></g><g transform="translate(154.91656494140625 512.5000152587891) rotate(0 -3.552713678800501e-15 41.24999237060547)"><path d="M-11.59 53.51 C-7.94 64.13, -2.51 70.59, -0.74 82.94 M-9.29 54.59 C-6.29 65.53, -1.48 75.36, 0.44 83.61" stroke="#1e1e1e" stroke-width="1" fill="none"/></g><g transform="translate(154.91656494140625 512.5000152587891) rotate(0 -3.552713678800501e-15 41.24999237060547)"><path d="M8.92 52.85 C7.32 63.63, 7.49 70.26, -0.74 82.94 M11.22 53.93 C6.48 65.32, 3.55 75.4, 0.44 83.61" stroke="#1e1e1e" stroke-width="1" fill="none"/></g></g><mask/><g stroke-linecap="round" transform="translate(88.08331298828125 789.8333892822266) rotate(0 59 37.5)"><path d="M18.75 0 M18.75 0 C44.76 -0.46, 72.73 1.6, 99.25 0 M18.75 0 C45.99 -0.04, 73.21 -1.3, 99.25 0 M99.25 0 C112.72 -1.03, 119.08 6.39, 118 18.75 M99.25 0 C110.57 2.25, 116.13 6.66, 118 18.75 M118 18.75 C119.55 35.58, 117.19 49.79, 118 56.25 M118 18.75 C117.61 28.9, 118.19 38.59, 118 56.25 M118 56.25 C119.58 68.29, 111.96 73.51, 99.25 75 M118 56.25 C118.63 70.74, 112.54 75.72, 99.25 75 M99.25 75 C74.59 75.51, 46.17 76.69, 18.75 75 M99.25 75 C77.98 74.22, 56.35 74.94, 18.75 75 M18.75 75 C8.14 76.19, -1.75 69.89, 0 56.25 M18.75 75 C6.92 73.31, 1.14 70.71, 0 56.25 M0 56.25 C-1.56 42.93, 1.25 26.08, 0 18.75 M0 56.25 C-0.26 45.6, 0.13 32.43, 0 18.75 M0 18.75 C-1.84 5.33, 7.89 1.65, 18.75 0 M0 18.75 C1.09 4.21, 5.96 1.78, 18.75 0" stroke="#1e1e1e" stroke-width="1" fill="none"/></g><g transform="translate(129.29034423828125 815.8333892822266) rotate(0 17.79296875 11.5)"><text x="17.79296875" y="0" font-family="Helvetica, Segoe UI Emoji" font-size="20px" fill="#1e1e1e" text-anchor="middle" style="white-space: pre;" direction="ltr" dominant-baseline="text-before-edge">End</text></g><g stroke-linecap="round"><g transform="translate(154.91656494140625 700.8333587646484) rotate(0 -3.552713678800501e-15 41.24999237060547)"><path d="M-0.06 -0.8 C-0.07 12.65, 0.43 67.49, 0.61 81.44 M-1.55 1.39 C-1.73 14.89, -0.41 69.19, -0.03 82.42" stroke="#1e1e1e" stroke-width="1" fill="none"/></g><g transform="translate(154.91656494140625 700.8333587646484) rotate(0 -3.552713678800501e-15 41.24999237060547)"><path d="M-12.34 55.51 C-8.66 66.22, -2.27 73.06, -0.93 81.84 M-10.4 54.56 C-7.61 62.22, -4.23 70.71, -0.91 81.79" stroke="#1e1e1e" stroke-width="1" fill="none"/></g><g transform="translate(154.91656494140625 700.8333587646484) rotate(0 -3.552713678800501e-15 41.24999237060547)"><path d="M8.17 54.99 C4.49 65.88, 3.5 72.9, -0.93 81.84 M10.11 54.04 C6.89 62.01, 4.24 70.66, -0.91 81.79" stroke="#1e1e1e" stroke-width="1" fill="none"/></g></g><mask/></svg>